<svg width="14" height="15" viewBox="0 0 14 15" fill="none" xmlns="http://www.w3.org/2000/svg">
<path fill-rule="evenodd" clip-rule="evenodd" d="M13.7222 8.09841C13.7222 7.60418 13.6779 7.12895 13.5955 6.67273H7.03101V9.36886H10.7821C10.6206 10.2401 10.1295 10.9783 9.3913 11.4725V13.2214H11.6439C12.9618 12.008 13.7222 10.2211 13.7222 8.09841Z" fill="#4285F4"/>
<path fill-rule="evenodd" clip-rule="evenodd" d="M7.03101 14.91C8.91291 14.91 10.4907 14.2858 11.6439 13.2213L9.39131 11.4725C8.76718 11.8907 7.9688 12.1378 7.03101 12.1378C5.21565 12.1378 3.67908 10.9117 3.13098 9.26427H0.802368V11.0701C1.94925 13.3481 4.30638 14.91 7.03101 14.91Z" fill="#34A853"/>
<path fill-rule="evenodd" clip-rule="evenodd" d="M3.131 9.26426C2.9916 8.84606 2.9124 8.39935 2.9124 7.93996C2.9124 7.48057 2.9916 7.03386 3.131 6.61566V4.8098H0.80239C0.330331 5.75075 0.0610352 6.81526 0.0610352 7.93996C0.0610352 9.06467 0.330331 10.1292 0.80239 11.0701L3.131 9.26426Z" fill="#FBBC05"/>
<path fill-rule="evenodd" clip-rule="evenodd" d="M7.03101 3.74216C8.05434 3.74216 8.97311 4.09383 9.69545 4.78449L11.6946 2.78537C10.4875 1.66066 8.90975 0.970001 7.03101 0.970001C4.30638 0.970001 1.94925 2.53192 0.802368 4.80984L3.13098 6.6157C3.67908 4.96825 5.21565 3.74216 7.03101 3.74216Z" fill="#EA4335"/>
</svg>
