<svg width="30" height="30" viewBox="0 0 30 30" fill="none" xmlns="http://www.w3.org/2000/svg">
<path fill-rule="evenodd" clip-rule="evenodd" d="M15 26.25C21.2132 26.25 26.25 21.2132 26.25 15C26.25 8.7868 21.2132 3.75 15 3.75C8.7868 3.75 3.75 8.7868 3.75 15C3.75 21.2132 8.7868 26.25 15 26.25ZM20.7682 11.8902C21.1218 11.4659 21.0645 10.8353 20.6402 10.4818C20.2159 10.1282 19.5853 10.1855 19.2318 10.6098L14.3838 16.4274C14.0371 16.8434 13.8422 17.0738 13.6866 17.2153L13.6806 17.2207L13.6742 17.2159C13.5064 17.089 13.2915 16.8772 12.9085 16.4943L10.7071 14.2929C10.3166 13.9024 9.68342 13.9024 9.29289 14.2929C8.90237 14.6834 8.90237 15.3166 9.29289 15.7071L11.4943 17.9085L11.5351 17.9493L11.5351 17.9493C11.8616 18.276 12.1757 18.5902 12.4679 18.8111C12.7953 19.0587 13.224 19.2915 13.7734 19.2665C14.3228 19.2416 14.7287 18.971 15.0323 18.6948C15.3034 18.4483 15.5877 18.1069 15.8833 17.7521L15.9203 17.7077L20.7682 11.8902Z" fill="#34C759"/>
</svg>
