<svg width="40" height="40" viewBox="0 0 40 40" fill="none" xmlns="http://www.w3.org/2000/svg">
<path d="M8.33333 21.266C8.33333 19.0031 8.33333 17.8716 8.79076 16.8771C9.2482 15.8825 10.1073 15.1462 11.8254 13.6735L13.4921 12.2449C16.5976 9.58302 18.1504 8.25208 20 8.25208C21.8496 8.25208 23.4024 9.58302 26.5079 12.2449L28.1746 13.6735C29.8927 15.1462 30.7518 15.8825 31.2092 16.8771C31.6667 17.8716 31.6667 19.0031 31.6667 21.266V28.3334C31.6667 31.4761 31.6667 33.0474 30.6904 34.0237C29.714 35 28.1427 35 25 35H15C11.8573 35 10.2859 35 9.30964 34.0237C8.33333 33.0474 8.33333 31.4761 8.33333 28.3334V21.266Z" stroke="#33363F" stroke-width="2"/>
<path d="M24.1667 35V26C24.1667 25.4477 23.7189 25 23.1667 25H16.8333C16.281 25 15.8333 25.4477 15.8333 26V35" stroke="#33363F" stroke-width="2" stroke-linecap="round" stroke-linejoin="round"/>
</svg>
